<svg width="381" height="109" viewBox="0 0 381 109" fill="none" xmlns="http://www.w3.org/2000/svg">
<path d="M12.136 10.808L0.76 8.93599V0.00799561H33.448L76.36 64.808L84.424 81.224V10.808L72.04 8.93599V0.00799561H107.752V8.93599L96.664 10.808V107H79.24L34.456 38.888L24.376 19.88V96.92L38.92 98.36V107H0.76V98.36L12.136 96.92V10.808ZM153.362 108.584C140.69 108.584 131.234 104.888 124.994 97.496C118.85 90.008 115.778 79.832 115.778 66.968C115.778 58.328 117.362 50.84 120.53 44.504C123.794 38.168 128.354 33.32 134.21 29.96C140.066 26.6 146.834 24.92 154.514 24.92C164.114 24.92 171.506 27.464 176.69 32.552C181.874 37.544 184.562 44.696 184.754 54.008C184.754 60.344 184.37 65.048 183.602 68.12H136.802C137.186 76.856 139.25 83.672 142.994 88.568C146.738 93.368 152.066 95.768 158.978 95.768C162.722 95.768 166.562 95.144 170.498 93.896C174.53 92.648 177.698 91.16 180.002 89.432L183.602 97.352C181.01 100.136 176.786 102.728 170.93 105.128C165.17 107.432 159.314 108.584 153.362 108.584ZM164.594 59.48C164.786 56.792 164.882 54.728 164.882 53.288C164.882 40.52 160.61 34.136 152.066 34.136C147.362 34.136 143.714 36.008 141.122 39.752C138.53 43.496 137.09 50.072 136.802 59.48H164.594ZM187.75 27.08H224.902V35.288L214.822 37.016L225.478 75.32L228.934 91.016L232.102 75.176L245.062 27.08H262.486L276.742 75.176L280.198 91.016L283.654 75.32L293.734 37.16L283.222 35.288V27.08H314.038V35.288L306.694 36.872L284.806 108.152H268.246L253.702 61.496L250.39 44.36L247.798 61.496L234.406 108.152H217.702L194.662 36.872L187.75 35.288V27.08ZM333.167 95.192C333.935 96.344 335.663 97.448 338.351 98.504C341.135 99.464 343.919 99.944 346.703 99.944C351.215 99.944 354.575 99.032 356.783 97.208C359.087 95.288 360.239 92.792 360.239 89.72C360.239 86.552 358.847 84.008 356.063 82.088C353.279 80.072 348.575 77.624 341.951 74.744L337.919 73.016C331.295 70.232 326.351 66.872 323.087 62.936C319.823 59 318.191 53.912 318.191 47.672C318.191 43.352 319.487 39.512 322.079 36.152C324.671 32.696 328.319 30.008 333.023 28.088C337.727 26.168 343.151 25.208 349.295 25.208C353.807 25.208 357.647 25.496 360.815 26.072C364.079 26.648 367.487 27.416 371.039 28.376C372.959 29.048 374.399 29.432 375.359 29.528V48.392H363.983L360.671 37.448C360.095 36.488 358.799 35.624 356.783 34.856C354.767 34.088 352.463 33.704 349.871 33.704C345.935 33.704 342.767 34.568 340.367 36.296C338.063 37.928 336.911 40.232 336.911 43.208C336.911 45.896 337.727 48.152 339.359 49.976C340.991 51.704 342.767 53.048 344.687 54.008C346.607 54.968 350.159 56.552 355.343 58.76C360.527 60.968 364.799 63.08 368.159 65.096C371.615 67.112 374.447 69.752 376.655 73.016C378.959 76.184 380.111 80.072 380.111 84.68C380.111 91.784 377.327 97.544 371.759 101.96C366.191 106.376 358.175 108.584 347.711 108.584C342.815 108.584 338.399 108.152 334.463 107.288C330.623 106.424 326.159 105.272 321.071 103.832L317.903 102.824V83.816H329.855L333.167 95.192Z" fill="#A20A01"/>
</svg>
